HIERARCHY
ROOT Hips
{
  OFFSET -4.35178 90.3298 111.633
  CHANNELS 6 Xposition Yposition Zposition Zrotation Xrotation Yrotation
  JOINT LeftUpLeg
  {
    OFFSET 0.103456 1.85784 10.5485
    CHANNELS 6 Xposition Yposition Zposition Zrotation Xrotation Yrotation
    JOINT LeftLeg
    {
      OFFSET 43.5 -4.2e-05 0
      CHANNELS 6 Xposition Yposition Zposition Zrotation Xrotation Yrotation
      JOINT LeftFoot
      {
        OFFSET 42.3722 1.9e-05 0
        CHANNELS 6 Xposition Yposition Zposition Zrotation Xrotation Yrotation
        JOINT LeftToe
        {
          OFFSET 17.3 0 0
          CHANNELS 6 Xposition Yposition Zposition Zrotation Xrotation Yrotation
          End Site
          {
            OFFSET 0 0 0
          }
        }
      }
    }
  }
  JOINT RightUpLeg
  {
    OFFSET 0.103456 1.85782 -10.5485
    CHANNELS 6 Xposition Yposition Zposition Zrotation Xrotation Yrotation
    JOINT RightLeg
    {
      OFFSET 43.5 -2.7e-05 0
      CHANNELS 6 Xposition Yposition Zposition Zrotation Xrotation Yrotation
      JOINT RightFoot
      {
        OFFSET 42.3723 0 0
        CHANNELS 6 Xposition Yposition Zposition Zrotation Xrotation Yrotation
        JOINT RightToe
        {
          OFFSET 17.3 0 1.7e-05
          CHANNELS 6 Xposition Yposition Zposition Zrotation Xrotation Yrotation
          End Site
          {
            OFFSET 0 0 0
          }
        }
      }
    }
  }
  JOINT Spine
  {
    OFFSET 6.90197 -2.60373 0
    CHANNELS 6 Xposition Yposition Zposition Zrotation Xrotation Yrotation
    JOINT Spine1
    {
      OFFSET 12.5881 0 0
      CHANNELS 6 Xposition Yposition Zposition Zrotation Xrotation Yrotation
      JOINT Spine2
      {
        OFFSET 12.3432 -1.8e-05 0
        CHANNELS 6 Xposition Yposition Zposition Zrotation Xrotation Yrotation
        JOINT Neck
        {
          OFFSET 25.8329 2.3e-05 0
          CHANNELS 6 Xposition Yposition Zposition Zrotation Xrotation Yrotation
          JOINT Head
          {
            OFFSET 11.7666 0 0
            CHANNELS 6 Xposition Yposition Zposition Zrotation Xrotation Yrotation
            End Site
            {
              OFFSET 0 0 0
            }
          }
        }
        JOINT LeftShoulder
        {
          OFFSET 19.7459 -1.48035 6.0001
          CHANNELS 6 Xposition Yposition Zposition Zrotation Xrotation Yrotation
          JOINT LeftArm
          {
            OFFSET 11.2841 1.8e-05 -2e-05
            CHANNELS 6 Xposition Yposition Zposition Zrotation Xrotation Yrotation
            JOINT LeftForeArm
            {
              OFFSET 33 -1.3e-05 1.9e-05
              CHANNELS 6 Xposition Yposition Zposition Zrotation Xrotation Yrotation
              JOINT LeftHand
              {
                OFFSET 25.2 3.2e-05 1.1e-05
                CHANNELS 6 Xposition Yposition Zposition Zrotation Xrotation Yrotation
                End Site
                {
                  OFFSET 0 0 0
                }
              }
            }
          }
        }
        JOINT RightShoulder
        {
          OFFSET 19.7461 -1.48036 -6.00008
          CHANNELS 6 Xposition Yposition Zposition Zrotation Xrotation Yrotation
          JOINT RightArm
          {
            OFFSET 11.2841 0 0
            CHANNELS 6 Xposition Yposition Zposition Zrotation Xrotation Yrotation
            JOINT RightForeArm
            {
              OFFSET 33.0001 1.6e-05 0
              CHANNELS 6 Xposition Yposition Zposition Zrotation Xrotation Yrotation
              JOINT RightHand
              {
                OFFSET 25.1998 0.000123 0.000432
                CHANNELS 6 Xposition Yposition Zposition Zrotation Xrotation Yrotation
                End Site
                {
                  OFFSET 0 0 0
                }
              }
            }
          }
        }
      }
    }
  }
}
MOTION
Frames:	11
Frame Time:	0.0333333
-97.7607 87.6296 -170.194 -87.5732 -27.2527 -171.702 0.103456 1.85784 10.5485 -2.53257 -8.25856 -175.035 43.5 -4.2e-05 1e-05 -17.8529 -0.154302 1.79017 42.3722 1.9e-05 0 70.366 -12.4669 -2.5501 17.3 7.10543e-15 3e-06 21.4546 -1e-06 0.003093 0.103456 1.85782 -10.5485 -18.5287 14.9148 -178.743 43.5 -2.7e-05 4e-06 -41.6966 2.65723 1.46307 42.3723 0 1e-05 78.6359 9.48012 -2.74566 17.3 -6e-06 1.7e-05 21.4546 -1.9e-05 -0.003116 6.90197 -2.60373 -3e-06 8.83371 -0.66316 0.11687 12.5881 1e-05 8e-06 7.66969 -1.20681 0.371238 12.3432 -1.8e-05 -5e-06 7.36805 -1.06796 0.45988 25.8329 2.3e-05 7e-06 13.7078 -3.55969 -3.21198 11.7666 -8e-06 -6e-06 -26.586 -11.8453 13.5101 19.7459 -1.48035 6.0001 -174.123 17.4817 -87.6173 11.2841 1.8e-05 -2e-05 -7.83026 -21.8786 61.3458 33 -1.3e-05 1.9e-05 -94.6928 -3.26479 -5.18463 25.2 3.2e-05 1.1e-05 -27.9711 51.9462 -15.9575 19.7461 -1.48036 -6.00008 -168.881 -22.3422 82.7959 11.2841 1.42109e-14 -1e-06 -31.3802 8.15504 -34.4894 33.0001 1.6e-05 -1e-06 -111.542 -16.9004 17.9437 25.1998 0.000123 0.000432 -10.9414 -4.76162 6.55079 
-98.8897 86.9315 -172.867 -88.0549 -19.9163 -173.237 0.103456 1.85784 10.5485 -0.733639 -6.72053 -175.012 43.5 -4.2e-05 1e-05 -18.9357 -1.91553 0.920021 42.3722 1.9e-05 2.84217e-14 75.9946 -15.9133 -1.34664 17.3 0 3e-06 21.4546 -1e-06 0.003093 0.103456 1.85782 -10.5485 -20.7849 14.4294 -177.744 43.5 -2.7e-05 4e-06 -45.0108 1.4647 -0.280348 42.3723 0 1e-05 78.0896 8.7087 -0.109004 17.3 -6e-06 1.7e-05 21.4546 -1.9e-05 -0.003116 6.90197 -2.60373 -3e-06 9.08263 -0.335291 0.116437 12.5881 1e-05 8e-06 8.15821 -0.54719 0.316884 12.3432 -1.8e-05 -5e-06 7.84625 -0.405627 0.365074 25.8329 2.3e-05 7e-06 13.7858 -4.32597 -2.40805 11.7666 -8e-06 -6e-06 -26.2468 -13.2106 14.0821 19.7459 -1.48035 6.0001 -172.352 17.8761 -86.37 11.2841 1.8e-05 -2e-05 -3.3655 -22.0049 61.6821 33 -1.3e-05 1.9e-05 -95.1168 -2.86999 -5.13678 25.2 3.2e-05 1.1e-05 -26.2091 52.943 -17.5825 19.7461 -1.48036 -6.00008 -171.503 -23.219 84.2007 11.2841 -1.42109e-14 -1e-06 -34.8054 8.0705 -33.8475 33.0001 1.6e-05 -1e-06 -113.149 -18.5607 16.0371 25.1998 0.000123 0.000432 -12.2789 -1.90505 5.05882 
-100.076 86.1732 -175.258 -88.037 -13.5297 -174.465 0.103456 1.85784 10.5485 0.314758 -1.74748 -175.341 43.5 -4.2e-05 1e-05 -20.3247 -4.27362 -0.180853 42.3722 1.9e-05 0 81.8361 -13.644 0.470385 17.3 0 3e-06 21.4546 -1e-06 0.003093 0.103456 1.85782 -10.5485 -22.7661 12.3077 -177.354 43.5 -2.7e-05 4e-06 -48.4807 1.04121 -0.962545 42.3723 0 1e-05 77.8422 9.17686 0.551266 17.3 -6e-06 1.7e-05 21.4546 -1.9e-05 -0.003116 6.90197 -2.60373 -3e-06 9.2723 -0.255664 0.0750898 12.5881 1e-05 8e-06 8.53556 -0.390979 0.221863 12.3432 -1.8e-05 -5e-06 8.22153 -0.249864 0.260808 25.8329 2.3e-05 7e-06 14.1834 -4.61668 -2.01824 11.7666 -8e-06 -6e-06 -25.6795 -13.9896 14.8586 19.7459 -1.48035 6.0001 -171.467 17.6469 -85.4025 11.2841 1.8e-05 -2e-05 0.0362388 -21.6237 61.6418 33 -1.3e-05 1.9e-05 -93.1842 -3.66762 -5.2775 25.2 3.2e-05 1.1e-05 -23.8465 52.3909 -18.1886 19.7461 -1.48036 -6.00008 -173.989 -23.9342 84.7751 11.2841 0 -1e-06 -37.8794 8.40346 -34.078 33.0001 1.6e-05 -1e-06 -114.137 -20.5335 14.2472 25.1998 0.000123 0.000432 -13.1674 0.431949 3.88471 
-101.157 85.9743 -177.311 -88.1526 -7.65943 -175.628 0.103456 1.85784 10.5485 -0.359575 1.82868 -175.8 43.5 -4.2e-05 1e-05 -23.4857 -5.53939 -0.428484 42.3722 1.9e-05 0 84.4188 -13.1438 1.75099 17.3 -7.10543e-15 3e-06 21.4546 -1e-06 0.003093 0.103456 1.85782 -10.5485 -23.7669 9.73339 -177.635 43.5 -2.7e-05 4e-06 -49.8721 1.14286 0.375415 42.3723 -1.42109e-14 1e-05 77.7195 10.6324 -1.49625 17.3 -6e-06 1.7e-05 21.4546 -1.9e-05 -0.003116 6.90197 -2.60373 -3e-06 9.45036 -0.320735 0.0169837 12.5881 1e-05 8e-06 8.89342 -0.52628 0.118726 12.3432 -1.8e-05 -5e-06 8.58186 -0.385821 0.166453 25.8329 2.3e-05 7e-06 14.6614 -4.57986 -1.95339 11.7666 -8e-06 -6e-06 -25.4636 -14.2016 15.598 19.7459 -1.48035 6.0001 -171.39 17.4754 -84.545 11.2841 1.8e-05 -2e-05 2.35895 -20.8542 61.3089 33 -1.3e-05 1.9e-05 -88.2977 -3.06889 -5.26065 25.2 3.2e-05 1.1e-05 -23.5125 50.8357 -16.649 19.7461 -1.48036 -6.00008 -175.918 -24.9785 84.5173 11.2841 0 -1e-06 -40.3547 8.56756 -35.3055 33.0001 1.6e-05 -1e-06 -113.717 -23.53 13.0223 25.1998 0.000123 0.000432 -13.361 1.84297 3.00724 
-101.536 86.285 -178.743 -87.8176 -2.55298 -176.548 0.103456 1.85784 10.5485 -0.208816 4.49575 -175.31 43.5 -4.2e-05 1e-05 -25.793 -5.98508 -1.68143 42.3722 1.9e-05 0 84.484 -13.4809 2.44295 17.3 0 3e-06 21.4546 -1e-06 0.003093 0.103456 1.85782 -10.5485 -22.6933 7.10475 -178.034 43.5 -2.7e-05 4e-06 -48.9536 2.37818 2.85495 42.3723 -1.42109e-14 1e-05 79.1658 12.8629 -5.20751 17.3 -6e-06 1.7e-05 21.4546 -1.9e-05 -0.003116 6.90197 -2.60373 -3e-06 9.62047 -0.411199 -0.047307 12.5881 1e-05 8e-06 9.23591 -0.714086 0.0082971 12.3432 -1.8e-05 -5e-06 8.92769 -0.574904 0.0680659 25.8329 2.3e-05 7e-06 15.0131 -4.59356 -1.80925 11.7666 -8e-06 -6e-06 -24.0029 -14.2434 16.1742 19.7459 -1.48035 6.0001 -171.825 17.5234 -83.68 11.2841 1.8e-05 -2e-05 3.04638 -20.0084 61.0559 33 -1.3e-05 1.9e-05 -81.4236 1.01608 -5.28288 25.2 3.2e-05 1.1e-05 -22.2593 50.1734 -15.9019 19.7461 -1.48036 -6.00008 -176.779 -25.7635 83.6989 11.2841 1.42109e-14 -1e-06 -41.6404 7.63881 -37.7738 33.0001 1.6e-05 -1e-06 -111.865 -24.9351 13.4973 25.1998 0.000123 0.000432 -14.0083 1.15061 3.63991 
-101.68 86.7539 -179.796 -87.3855 2.05537 -177.248 0.103456 1.85784 10.5485 0.994548 6.73769 -174.913 43.5 -4.2e-05 1e-05 -26.0611 -6.56875 -3.23093 42.3722 1.9e-05 0 83.8789 -13.6911 3.41655 17.3 0 3e-06 21.4546 -1e-06 0.003093 0.103456 1.85782 -10.5485 -21.0631 4.17031 -178.743 43.5 -2.7e-05 4e-06 -47.7455 4.50268 5.68073 42.3723 -2.84217e-14 1e-05 81.6462 13.7957 -10.0175 17.3 -6e-06 1.7e-05 21.4546 -1.9e-05 -0.003116 6.90197 -2.60373 -3e-06 9.80837 -0.488889 -0.104397 12.5881 1e-05 8e-06 9.61359 -0.87501 -0.0894237 12.3432 -1.8e-05 -5e-06 9.30824 -0.735737 -0.0193545 25.8329 2.3e-05 7e-06 15.172 -4.57888 -1.79249 11.7666 -8e-06 -6e-06 -23.1707 -14.1655 16.3691 19.7459 -1.48035 6.0001 -172.323 17.7469 -83.2469 11.2841 1.8e-05 -2e-05 2.7088 -18.7176 60.7737 33 -1.3e-05 1.9e-05 -76.6438 3.23782 -5.51885 25.2 3.2e-05 1.1e-05 -22.583 49.0418 -14.259 19.7461 -1.48036 -6.00008 -176.776 -25.9146 83.0723 11.2841 0 -1e-06 -41.8148 6.02646 -40.2878 33.0001 1.6e-05 -1e-06 -110.156 -24.3065 14.8648 25.1998 0.000123 0.000432 -13.6874 0.440312 3.78991 
-101.68 87.1401 -180.759 -87.3319 6.80941 -177.84 0.103456 1.85784 10.5485 2.68113 8.20983 -175.426 43.5 -4.2e-05 1e-05 -24.815 -7.89505 -4.08386 42.3722 1.9e-05 0 83.6577 -14.1954 5.12192 17.3 0 3e-06 21.4546 -1e-06 0.003093 0.103456 1.85782 -10.5485 -20.0112 1.81337 -179.612 43.5 -2.7e-05 4e-06 -46.8718 5.64686 8.10695 42.3723 2.84217e-14 1e-05 82.8791 14.7314 -12.8648 17.3 -6e-06 1.7e-05 21.4546 -1.9e-05 -0.003116 6.90197 -2.60373 -3e-06 9.90075 -0.449219 -0.166634 12.5881 1e-05 8e-06 9.79725 -0.805559 -0.219857 12.3432 -1.8e-05 -5e-06 9.49125 -0.671691 -0.153779 25.8329 2.3e-05 7e-06 15.1143 -4.27894 -1.97769 11.7666 -8e-06 -6e-06 -23.2509 -14.0971 16.4508 19.7459 -1.48035 6.0001 -171.821 17.7825 -83.073 11.2841 1.8e-05 -2e-05 2.87285 -17.5304 61.3558 33 -1.3e-05 1.9e-05 -76.6131 3.85439 -5.4342 25.2 3.2e-05 1.1e-05 -24.0246 49.5812 -13.8741 19.7461 -1.48036 -6.00008 -176.728 -24.7921 82.8027 11.2841 1.42109e-14 -1e-06 -41.4891 3.44708 -42.342 33.0001 1.6e-05 -1e-06 -109.301 -21.4221 16.7135 25.1998 0.000123 0.000432 -13.0698 -1.47247 4.59307 
-101.496 87.4879 -181.584 -87.4294 11.3059 -178.277 0.103456 1.85784 10.5485 4.58077 9.32777 -176.44 43.5 -4.2e-05 1e-05 -22.7675 -9.39103 -4.27013 42.3722 1.9e-05 0 83.2742 -15.088 6.46045 17.3 -7.10543e-15 3e-06 21.4546 -1e-06 0.003093 0.103456 1.85782 -10.5485 -19.4062 0.157995 179.362 43.5 -2.7e-05 4e-06 -46.4147 6.04542 9.96533 42.3723 0 1e-05 82.8236 14.3472 -14.7025 17.3 -6e-06 1.7e-05 21.4546 -1.9e-05 -0.003116 6.90197 -2.60373 -3e-06 9.93677 -0.446996 -0.243136 12.5881 1e-05 8e-06 9.86912 -0.814678 -0.37221 12.3432 -1.8e-05 -5e-06 9.56378 -0.689153 -0.305254 25.8329 2.3e-05 7e-06 14.7131 -3.7682 -2.38337 11.7666 -8e-06 -6e-06 -23.2222 -14.0505 16.6701 19.7459 -1.48035 6.0001 -171.346 17.2336 -83.5599 11.2841 1.8e-05 -2e-05 2.35157 -15.9184 61.8241 33 -1.3e-05 1.9e-05 -78.883 -0.0836821 -4.93368 25.2 3.2e-05 1.1e-05 -23.8422 49.1179 -13.5662 19.7461 -1.48036 -6.00008 -176.268 -23.3369 82.5133 11.2841 -2.84217e-14 -1e-06 -40.6343 0.28637 -43.577 33.0001 1.6e-05 -1e-06 -109.061 -17.2498 18.7837 25.1998 0.000123 0.000432 -12.7071 -4.27386 5.99167 
-101.216 87.6931 -182.164 -87.3974 15.5727 -178.62 0.103456 1.85784 10.5485 6.67141 10.2787 -177.647 43.5 -4.2e-05 1e-05 -20.5385 -11.1672 -4.36594 42.3722 1.9e-05 0 83.1349 -15.5713 7.98045 17.3 -7.10543e-15 3e-06 21.4546 -1e-06 0.003093 0.103456 1.85782 -10.5485 -19.4722 -1.08966 178.284 43.5 -2.7e-05 4e-06 -46.847 5.98433 11.106 42.3723 0 1e-05 82.8178 14.4111 -15.7775 17.3 -6e-06 1.7e-05 21.4546 -1.9e-05 -0.003116 6.90197 -2.60373 -3e-06 10.0137 -0.394933 -0.337699 12.5881 1e-05 8e-06 10.0217 -0.727278 -0.569596 12.3432 -1.8e-05 -5e-06 9.7156 -0.611834 -0.507628 25.8329 2.3e-05 7e-06 14.2193 -3.31382 -2.6573 11.7666 -8e-06 -6e-06 -23.3654 -14.1717 16.6683 19.7459 -1.48035 6.0001 -171.131 16.315 -83.9728 11.2841 1.8e-05 -2e-05 1.12014 -14.6828 62.0778 33 -1.3e-05 1.9e-05 -81.5989 -2.7499 -4.74939 25.2 3.2e-05 1.1e-05 -24.2998 49.2408 -13.3635 19.7461 -1.48036 -6.00008 -175.406 -21.7815 82.3163 11.2841 1.42109e-14 -1e-06 -38.9564 -2.47075 -44.1375 33.0001 1.6e-05 -1e-06 -109.056 -12.9848 20.8071 25.1998 0.000123 0.000432 -12.0294 -7.10472 7.25113 
-100.719 87.8727 -182.275 -87.2669 19.4438 -178.922 0.103456 1.85784 10.5485 9.23502 10.8667 -178.646 43.5 -4.2e-05 1e-05 -17.623 -12.7631 -4.60215 42.3722 1.9e-05 -2.84217e-14 82.5063 -16.5082 9.13668 17.3 1.42109e-14 3e-06 21.4546 -1e-06 0.003093 0.103456 1.85782 -10.5485 -19.3349 -1.72378 177.435 43.5 -2.7e-05 4e-06 -46.8856 6.06988 11.7264 42.3723 0 1e-05 83.0533 14.6453 -16.3517 17.3 -6e-06 1.7e-05 21.4546 -1.9e-05 -0.003116 6.90197 -2.60373 -3e-06 10.0995 -0.399335 -0.450379 12.5881 1e-05 8e-06 10.1932 -0.755864 -0.792284 12.3432 -1.8e-05 -5e-06 9.88823 -0.65153 -0.72807 25.8329 2.3e-05 7e-06 13.5314 -2.77616 -2.91774 11.7666 -8e-06 -6e-06 -23.0769 -14.144 16.7896 19.7459 -1.48035 6.0001 -170.939 15.5791 -84.0147 11.2841 1.8e-05 -2e-05 0.0598682 -13.6202 62.057 33 -1.3e-05 1.9e-05 -84.123 -4.03715 -4.79548 25.2 3.2e-05 1.1e-05 -24.8901 50.2612 -13.8327 19.7461 -1.48036 -6.00008 -174.469 -20.29 81.5683 11.2841 2.84217e-14 -1e-06 -36.796 -4.90616 -44.22 33.0001 1.6e-05 -1e-06 -108.884 -9.95004 22.4322 25.1998 0.000123 0.000432 -11.1551 -9.63527 8.20242 
-100.339 88.0096 -182.155 -87.2535 22.7962 -179.181 0.103456 1.85784 10.5485 10.8037 11.1328 -179.255 43.5 -4.2e-05 1e-05 -16.1302 -13.9563 -4.95746 42.3722 1.9e-05 0 82.1788 -17.42 10.4067 17.3 0 3e-06 21.4546 -1e-06 0.003093 0.103456 1.85782 -10.5485 -19.63 -1.94356 176.801 43.5 -2.7e-05 4e-06 -46.6528 6.25725 11.7916 42.3723 -2.84217e-14 1e-05 83.0793 14.774 -16.6913 17.3 -6e-06 1.7e-05 21.4546 -1.9e-05 -0.003116 6.90197 -2.60373 -3e-06 10.2823 -0.467909 -0.544615 12.5881 1e-05 8e-06 10.5597 -0.907581 -0.964969 12.3432 -1.8e-05 -5e-06 10.2576 -0.808048 -0.890954 25.8329 2.3e-05 7e-06 12.7733 -2.12767 -3.17786 11.7666 -8e-06 -6e-06 -23.4933 -13.9221 16.7895 19.7459 -1.48035 6.0001 -171.032 15.3915 -84.2044 11.2841 1.8e-05 -2e-05 -0.888415 -12.8913 61.8683 33 -1.3e-05 1.9e-05 -85.3536 -4.98409 -4.85297 25.2 3.2e-05 1.1e-05 -27.4573 50.7594 -13.2161 19.7461 -1.48036 -6.00008 -173.03 -19.0453 80.8872 11.2841 0 -1e-06 -34.0321 -5.94991 -43.7719 33.0001 1.6e-05 -1e-06 -108.698 -8.63011 23.4923 25.1998 0.000123 0.000432 -10.5405 -13.096 10.1041 
